<mxfile host="app.diagrams.net" modified="2023-10-25T06:32:27.796Z" agent="Mozilla/5.0 (Windows NT 10.0; Win64; x64) AppleWebKit/537.36 (KHTML, like Gecko) Chrome/118.0.0.0 Safari/537.36" version="22.0.7" etag="mclWh2bYUJOFvBG5SgeQ" type="github">
  <diagram name="Halaman-1" id="vdJ7HHc0wl6ZHaO2FCbe">
    <mxGraphModel>
      <root>
        <mxCell id="0" />
        <mxCell id="1" parent="0" />
      </root>
    </mxGraphModel>
  </diagram>
</mxfile>
